REM DIRINDEX 1\2\6,1\2\7,1\2\8,1\3\9,1\3\10,1\3\11,1\4\12,1\4\13,1\4\14,1\5\15,1\5\16,1\5\17,1\5\18
REM DIRNAME folder01,folder02,folder03,folder04,folder05,folder06,folder07,folder08,folder09,folder10,folder11,folder12,folder13,folder14,folder15,folder16,folder17,folder18
TITLE ""
FILE "2Q_j_1306-1319.mp3" MP3
  TRACK 01 AUDIO
    TITLE "6:cjc019_0380"
    INDEX 01 00:00:00
  TRACK 02 AUDIO
    TITLE "0:"
    INDEX 01 00:01:13
  TRACK 03 AUDIO
    TITLE "7:cjc019_0381"
    INDEX 01 00:01:71
  TRACK 04 AUDIO
    TITLE "0:"
    INDEX 01 00:05:65
  TRACK 05 AUDIO
    TITLE "8:cjc019_0382"
    INDEX 01 00:06:39
  TRACK 06 AUDIO
    TITLE "0:"
    INDEX 01 00:09:55
  TRACK 07 AUDIO
    TITLE "6:cjc019_0383"
    INDEX 01 00:10:35
  TRACK 08 AUDIO
    TITLE "0:"
    INDEX 01 00:11:52
  TRACK 09 AUDIO
    TITLE "7:cjc019_0384"
    INDEX 01 00:12:40
  TRACK 10 AUDIO
    TITLE "0:"
    INDEX 01 00:16:38
  TRACK 11 AUDIO
    TITLE "8:cjc019_0385"
    INDEX 01 00:17:10
  TRACK 12 AUDIO
    TITLE "0:"
    INDEX 01 00:20:00
  TRACK 13 AUDIO
    TITLE "6:cjc019_0386"
    INDEX 01 00:20:57
  TRACK 14 AUDIO
    TITLE "0:"
    INDEX 01 00:22:11
  TRACK 15 AUDIO
    TITLE "7:cjc019_0387"
    INDEX 01 00:23:06
  TRACK 16 AUDIO
    TITLE "0:"
    INDEX 01 00:26:15
  TRACK 17 AUDIO
    TITLE "8:cjc019_0388"
    INDEX 01 00:26:69
  TRACK 18 AUDIO
    TITLE "0:"
    INDEX 01 00:29:42
  TRACK 19 AUDIO
    TITLE "6:cjc019_0389"
    INDEX 01 00:30:14
  TRACK 20 AUDIO
    TITLE "0:"
    INDEX 01 00:31:24
  TRACK 21 AUDIO
    TITLE "7:cjc019_0390"
    INDEX 01 00:32:13
  TRACK 22 AUDIO
    TITLE "0:"
    INDEX 01 00:36:11
  TRACK 23 AUDIO
    TITLE "8:cjc019_0391"
    INDEX 01 00:36:62
  TRACK 24 AUDIO
    TITLE "0:"
    INDEX 01 00:39:64
  TRACK 25 AUDIO
    TITLE "6:cjc019_0392"
    INDEX 01 00:40:38
  TRACK 26 AUDIO
    TITLE "0:"
    INDEX 01 00:41:69
  TRACK 27 AUDIO
    TITLE "7:cjc019_0393"
    INDEX 01 00:42:53
  TRACK 28 AUDIO
    TITLE "0:"
    INDEX 01 00:44:71
  TRACK 29 AUDIO
    TITLE "8:cjc019_0394"
    INDEX 01 00:45:45
  TRACK 30 AUDIO
    TITLE "0:"
    INDEX 01 00:49:04
  TRACK 31 AUDIO
    TITLE "6:cjc019_0395"
    INDEX 01 00:49:65
  TRACK 32 AUDIO
    TITLE "0:"
    INDEX 01 00:51:42
  TRACK 33 AUDIO
    TITLE "7:cjc019_0396"
    INDEX 01 00:52:18
  TRACK 34 AUDIO
    TITLE "0:"
    INDEX 01 00:54:58
  TRACK 35 AUDIO
    TITLE "8:cjc019_0397"
    INDEX 01 00:55:40
  TRACK 36 AUDIO
    TITLE "0:"
    INDEX 01 00:59:47
  TRACK 37 AUDIO
    TITLE "6:cjc019_0398"
    INDEX 01 01:00:23
  TRACK 38 AUDIO
    TITLE "0:"
    INDEX 01 01:01:46
  TRACK 39 AUDIO
    TITLE "7:cjc019_0399"
    INDEX 01 01:02:30
  TRACK 40 AUDIO
    TITLE "0:"
    INDEX 01 01:03:51
  TRACK 41 AUDIO
    TITLE "8:cjc019_0400"
    INDEX 01 01:04:33
  TRACK 42 AUDIO
    TITLE "0:"
    INDEX 01 01:08:42
  TRACK 43 AUDIO
    TITLE "6:cjc019_0401"
    INDEX 01 01:09:28
  TRACK 44 AUDIO
    TITLE "0:"
    INDEX 01 01:11:03
  TRACK 45 AUDIO
    TITLE "7:cjc019_0402"
    INDEX 01 01:11:62
  TRACK 46 AUDIO
    TITLE "0:"
    INDEX 01 01:13:38
  TRACK 47 AUDIO
    TITLE "8:cjc019_0403"
    INDEX 01 01:14:16
  TRACK 48 AUDIO
    TITLE "0:"
    INDEX 01 01:17:45
  TRACK 49 AUDIO
    TITLE "6:cjc019_0404"
    INDEX 01 01:18:23
  TRACK 50 AUDIO
    TITLE "0:"
    INDEX 01 01:19:74
  TRACK 51 AUDIO
    TITLE "7:cjc019_0405"
    INDEX 01 01:20:49
  TRACK 52 AUDIO
    TITLE "0:"
    INDEX 01 01:22:42
  TRACK 53 AUDIO
    TITLE "8:cjc019_0406"
    INDEX 01 01:23:24
  TRACK 54 AUDIO
    TITLE "0:"
    INDEX 01 01:27:50
  TRACK 55 AUDIO
    TITLE "6:cjc019_0407"
    INDEX 01 01:28:29
  TRACK 56 AUDIO
    TITLE "0:"
    INDEX 01 01:29:74
  TRACK 57 AUDIO
    TITLE "7:cjc019_0408"
    INDEX 01 01:30:60
  TRACK 58 AUDIO
    TITLE "0:"
    INDEX 01 01:32:59
  TRACK 59 AUDIO
    TITLE "8:cjc019_0409"
    INDEX 01 01:33:36
  TRACK 60 AUDIO
    TITLE "0:"
    INDEX 01 01:36:56
  TRACK 61 AUDIO
    TITLE "6:cjc019_0410"
    INDEX 01 01:37:42
  TRACK 62 AUDIO
    TITLE "0:"
    INDEX 01 01:38:63
  TRACK 63 AUDIO
    TITLE "7:cjc019_0411"
    INDEX 01 01:39:41
  TRACK 64 AUDIO
    TITLE "0:"
    INDEX 01 01:42:20
  TRACK 65 AUDIO
    TITLE "8:cjc019_0412"
    INDEX 01 01:42:71
  TRACK 66 AUDIO
    TITLE "0:"
    INDEX 01 01:45:30
  TRACK 67 AUDIO
    TITLE "6:cjc019_0413"
    INDEX 01 01:46:06
  TRACK 68 AUDIO
    TITLE "0:"
    INDEX 01 01:47:23
  TRACK 69 AUDIO
    TITLE "7:cjc019_0414"
    INDEX 01 01:48:12
  TRACK 70 AUDIO
    TITLE "0:"
    INDEX 01 01:50:39
  TRACK 71 AUDIO
    TITLE "8:cjc019_0415"
    INDEX 01 01:51:19
  TRACK 72 AUDIO
    TITLE "0:"
    INDEX 01 01:54:07
  TRACK 73 AUDIO
    TITLE "6:cjc019_0416"
    INDEX 01 01:54:62
  TRACK 74 AUDIO
    TITLE "0:"
    INDEX 01 01:56:28
  TRACK 75 AUDIO
    TITLE "7:cjc019_0417"
    INDEX 01 01:57:06
  TRACK 76 AUDIO
    TITLE "0:"
    INDEX 01 01:58:66
  TRACK 77 AUDIO
    TITLE "8:cjc019_0418"
    INDEX 01 01:59:44
  TRACK 78 AUDIO
    TITLE "0:"
    INDEX 01 02:02:58
  TRACK 79 AUDIO
    TITLE "6:cjc019_0419"
    INDEX 01 02:03:41
  TRACK 80 AUDIO
    TITLE "0:"
    INDEX 01 02:05:31
  TRACK 81 AUDIO
    TITLE "7:cjc019_0420"
    INDEX 01 02:06:14
  TRACK 82 AUDIO
    TITLE "0:"
    INDEX 01 02:07:39
  TRACK 83 AUDIO
    TITLE "8:cjc019_0421"
    INDEX 01 02:08:21
  TRACK 84 AUDIO
    TITLE "0:"
    INDEX 01 02:11:66
